<?xml version="1.0" encoding="UTF-8"?>
<svg xmlns="http://www.w3.org/2000/svg" viewBox="0 0 1024 1024" width="1024" height="1024">
<path d="M669.84 378C669.61 378.67 669.39 379.33 669.16 380C667.71 402.6 663.92 420.73 653.53 441.03C650.6 446.77 647.29 453.53 642.41 458C641.85 458.17 641.29 458.33 640.73 458.5C641.24 458.67 641.76 458.83 642.27 459C634.66 468.01 625.49 476.52 615.97 483.47C613.38 485.36 610.18 487.41 607.31 488.81C606.15 489.38 604.82 489.44 603.66 490.16C598.81 493.13 593.67 495.77 588.31 497.81C579.12 501.32 569.14 502.76 560 506.27C558.87 504.65 559.59 505.38 557.7 504.5C558.11 505.09 558.51 505.68 558.92 506.27C554.58 507.74 550.14 508.3 545.69 509.19C540.25 510.28 533 513.16 527.69 515.19C512.53 520.97 498.03 531.88 488 544.5C486.93 545.85 485.27 546.46 484.19 547.69C482.16 549.99 481.26 553.47 479.47 555.97C478.65 557.12 477.35 557.88 476.53 559.03C475.46 560.54 475.15 562.33 474.5 564C472.4 569.37 469.24 574.3 467.19 579.69C464.28 587.31 463.27 595.61 462.03 603.53C461.55 606.59 462.63 609.61 462.63 612.5C462.63 614.14 461.76 615.66 462.03 617.47C462.97 623.66 465.31 629.62 466.81 635.69C467.02 636.54 466.88 637.49 467.19 638.31C467.54 639.24 468.38 639.8 468.81 640.69C470.55 644.25 472.14 647.69 474.53 650.97C475.5 652.3 476.98 653.22 478 654.5C480.24 657.32 482.97 660.29 486.03 662.47C487.64 663.62 489.68 664.11 491.34 665.16C492.14 665.66 492.8 666.47 493.69 666.81C494.53 667.13 495.47 666.87 496.31 667.19C497.25 667.55 497.75 668.45 498.69 668.81C503.24 670.55 509.16 671.16 514 670.83C514.67 670.83 515.33 670.83 516 670.83C520.29 670.79 524.58 669.56 528.69 668.19C530.39 667.62 532.73 667.54 534.28 666.78C534.98 666.44 535.06 665.63 535.72 665.22C537.34 664.2 539.32 663.67 540.97 662.47C550.73 655.35 557.1 645.36 560.73 633.98C561.32 634.28 561.91 634.59 562.5 634.9C562.33 634.34 562.17 633.78 562 633.23C562.08 626.3 569.57 613.92 573.47 607.97C575.84 604.35 577.99 600.52 580.53 597.03C582.28 594.64 584.91 592.59 587 590.5C594.13 583.37 601.13 576.99 609.97 572.47C612.54 571.15 614.89 569.25 617.69 568.19C619.22 567.6 621.11 566.56 622.69 566.19C624.2 565.83 625.83 566.29 627.31 565.81C628.84 565.32 630.1 563.79 631.69 563.19C635.66 561.67 640.38 560.68 644.53 560.03C648.82 559.36 653.18 559.64 657.47 558.97C659.42 558.66 661.52 557.38 663.5 557.38C665.14 557.38 666.66 558.24 668.47 557.97C672.46 557.36 676.54 556.66 680.53 556.03C685.37 555.27 689.75 555.59 694 552.73C694.73 553.32 695.46 553.91 696.19 554.5C695.77 553.91 695.36 553.32 694.94 552.73C699.24 551.29 702.43 549.11 705.61 545.87C707.46 544.99 707.86 544.61 708.63 542.6C711.94 539.93 713.87 535.65 715.19 531.69C716.24 528.54 716.58 525.91 717.19 522.69C717.34 521.88 717.94 521.39 717.94 520.5C717.94 519.46 717.24 518.49 717.03 517.47C715.22 508.4 715.05 506.53 709.53 498.97C708.51 497.56 707.93 496.14 706.5 495C701.89 491.34 696.78 488.25 693 483.5C691.76 481.94 691.12 480.02 689.91 478.43C689.56 477.61 689.2 476.78 688.84 475.95C688.13 471.89 687.18 466.92 688.19 462.69C689.27 458.14 691.99 453.85 695.5 451C697.57 449.32 699.36 447.57 701.66 446.16C704.1 444.65 706.79 444.5 709.47 443.97C718.69 442.12 728.22 444.06 736.34 449.16C742.07 452.75 747.47 457.56 751.47 463.03C753.05 465.19 753.98 467.8 755.53 469.97C756.35 471.12 757.65 471.88 758.47 473.03C763.81 480.51 767.44 492.56 769.19 501.31C769.69 503.84 771.6 506.92 771.63 509.5C771.64 510.84 770.78 511.97 771.03 513.47C771.27 514.88 772.51 515.42 772.81 516.69C773.16 518.12 772.17 518.99 772.22 520.34C772.27 521.75 773.16 522.86 772.97 524.47C771.92 533.24 770.34 542.56 767.81 551.31C767.27 553.21 765.73 554.79 765.19 556.69C761.93 567.97 752.85 580.57 743.5 588C729.07 599.47 713 607.07 694.47 609.97C692.2 610.32 689.8 609.68 687.53 610.03C686.43 610.2 685.57 610.8 684.47 610.97C681.55 611.43 678.45 610.57 675.53 611.03C661.95 613.16 649.35 612.64 637.03 620.53C634.97 621.86 632.43 623.48 630.69 625.19C630 625.86 629.77 626.9 628.97 627.47C627.86 628.26 626.46 627.89 625.53 629.03C624.89 629.82 624.93 631.06 624.47 631.97C622.75 635.33 619.86 638.26 618.19 641.69C613.98 650.29 612.11 660.12 606.84 668.34C606.21 669.33 605.1 670.03 604.53 671.03C603.64 672.58 603.56 674.45 602.47 675.97C600.26 679.06 597.7 681.91 595.47 684.97C594.33 686.52 592.26 687.27 591.22 688.72C590.79 689.31 590.86 690.3 590.47 690.97C588.53 694.28 576.47 703.97 572.97 706.47C569.1 709.23 562.75 713.12 558.31 714.81C556.86 715.37 555.08 715.51 553.69 716.19C552.14 716.94 550.98 718.18 549.31 718.81C541.48 721.8 532.65 723.69 524.47 724.97C522.52 725.27 520.48 724.74 518.53 725.03C517.83 725.14 517 725.76 516.34 725.78C515.28 725.82 514.56 725.1 513.5 725.06C512.74 725.03 512.21 725.63 511.5 725.63C510.85 725.62 510.14 725.12 509.47 725.03C507.19 724.75 504.8 725.32 502.53 724.97C484.19 722.1 466.25 716.58 451.03 705.47C447.87 703.16 442.42 698.54 440 695.5C439.41 694.75 439.1 693.71 438.47 693.03C437.76 692.26 436.85 692.07 436.03 691.47C433.18 689.39 429.61 685.82 427.53 682.97C423.58 677.56 417.03 667.71 415.19 661.31C414.94 660.46 415.13 659.52 414.81 658.69C414.46 657.76 413.62 657.2 413.19 656.31C410.39 650.58 408.02 639.76 407.03 633.47C406.78 631.85 407.22 630.15 406.97 628.53C406.61 626.27 405.38 623.81 405.38 621.5C405.38 620.85 405.89 620.14 405.97 619.47C406.27 617.04 405.99 614.42 405.83 612C405.83 611 405.83 610 405.83 609C406.01 606.41 405.38 603.93 405.38 601.5C405.38 598.55 406.52 595.37 406.97 592.47C407.22 590.85 406.78 589.15 407.03 587.53C407.64 583.61 408.4 579.61 409.19 575.69C409.96 571.81 411.86 568.16 412.81 564.31C416.85 547.94 425.63 531.6 435.53 518.03C437.89 514.8 441.11 512.2 443.47 508.97C447.27 503.76 452.37 498.07 457.5 494C460.62 491.52 463.78 488.85 467.03 486.53C468.03 485.82 469.35 485.56 470.31 484.81C470.92 484.34 471.07 483.64 471.72 483.22C472.36 482.8 473.27 482.88 473.97 482.47C475.74 481.43 477.27 479.66 479.03 478.53C483.84 475.45 488.99 472.84 494.31 470.81C495.88 470.22 497.35 468.94 498.97 468.53C499.73 468.34 500.27 468.72 501 468.44C502.9 467.7 504.66 465.96 506.69 465.19C511.91 463.19 518.32 462.73 523 459.73C523.55 460.32 524.11 460.91 524.66 461.5C524.45 460.91 524.25 460.32 524.04 459.73C527.01 459.38 529.72 457.8 532.69 457.19C538.23 456.04 543.77 454.96 549.31 453.81C554.69 452.7 560.03 450.34 565.31 448.81C568.35 447.94 570.91 445.3 573.97 444.53C574.72 444.34 575.29 444.76 576 444.44C576.79 444.08 577.32 443.04 578.03 442.53C578.69 442.06 586.98 436.57 587 436.56C587.74 436.32 588.7 437.14 589.31 436.75C590.16 436.22 590.38 434.37 591 433.5C592.35 431.61 594.55 430.32 596 428.5C597.35 426.8 598.26 424.78 599.53 423.03C600.36 421.89 601.65 421.12 602.47 419.97C605.69 415.46 607.26 409.73 609.19 404.69C615.99 386.85 614.93 370.99 608.19 353.31C607.54 351.63 607.37 349.6 606.47 348.03C605.45 346.26 603.66 344.72 602.53 342.97C598.82 337.18 595.05 331.4 589.5 327C588.75 326.4 587.73 326.09 587.03 325.47C586.29 324.8 586.1 323.79 585.28 323.22C583.23 321.78 579.93 320.93 577.69 319.81C575.51 318.72 573.67 317.09 571.31 316.19C563.03 313.03 554.73 312.12 546.17 312C544.66 311.27 545.18 311.27 543.69 312C541.36 312 539.66 312.61 537.47 312.97C533.63 313.6 529.37 313.78 525.69 315.19C523.37 316.07 521.16 317.38 519.31 318.81C516.81 320.76 513.17 321.21 510.69 323.19C501.69 330.34 494.21 339.41 489.19 349.69C485.11 358.04 484.42 367.59 482.97 376.47C482.47 379.49 481.5 382.51 481.03 385.53C480.73 387.48 481.27 389.52 480.97 391.47C480.38 395.26 478.94 398.94 478.19 402.69C475.02 418.53 468.95 434.49 458.19 446.69C456.37 448.74 455.34 451.18 453.32 453.14C452.27 454.19 451.22 455.23 450.16 456.27C447.33 457.93 445.59 460.56 442.97 462.47C436.43 467.24 429 471.88 421.31 474.81C417.54 476.25 413.58 477.23 409.69 478.19C408.23 478.55 406.79 479.52 405.31 479.81C402.69 480.34 400.55 480.29 398 481.27C397.42 480.68 396.84 480.09 396.25 479.5C396.49 480.09 396.72 480.68 396.96 481.27C390.97 482.27 384.99 483.27 379 484.27C378.83 483.7 378.67 483.14 378.5 482.57C378.11 482.97 377.73 483.38 377.34 483.78C374.88 485.34 371.68 485.47 368.69 486.19C366.07 486.81 363.28 487.44 360.69 488.19C358.5 488.82 356.55 490.26 354.31 490.81C351.91 491.4 348.86 491.87 346.72 493.22C345.03 494.28 343.77 496.44 341.97 497.47C341.03 498.01 339.97 497.99 339.03 498.53C337.84 499.22 337.08 500.66 335.97 501.47C331.83 504.49 328.49 507.83 325.47 511.97C323.93 514.08 321.74 515.66 320.53 518.03C312.14 534.43 309.13 552 320.53 567.97C323.82 572.57 328.96 574.93 332.97 578.53C333.62 579.11 333.81 580.16 334.53 580.59C334.77 580.74 335.59 580.4 336 580.56C341.76 582.87 352.03 591.53 353.81 597.69C354.06 598.55 353.94 599.45 354.19 600.31C354.88 602.7 356.63 604.9 356.63 607.5C356.63 609.48 355.35 611.59 355.03 613.53C354.65 615.85 354.89 618.11 353.81 620.31C351.41 625.23 343.74 632.47 338.31 633.81C335.77 634.44 333.09 634.53 330.53 635.03C329.87 635.16 328.97 635.75 328.34 635.78C325.11 635.93 320.11 634.52 316.69 633.81C309.32 632.28 301.93 626.77 296.03 622.47C294.43 621.3 293.71 619.42 292.31 618.19C290.28 616.39 286.45 614.63 284.19 612.31C281.08 609.14 279.03 604.62 276.47 601.03C275.65 599.88 274.36 599.11 273.53 597.97C269.38 592.28 265.16 585.14 263.19 578.31C261.72 573.21 259.85 567.7 259.03 562.47C258.78 560.85 259.22 559.15 258.97 557.53C258.52 554.63 257.38 551.45 257.38 548.5C257.38 547.6 257.92 546.46 258 545.5C258.34 541.57 257.42 537.42 258.03 533.53C258.2 532.44 258.79 531.56 258.97 530.47C259.17 529.22 258.79 527.92 259.19 526.69C259.47 525.81 260.44 525.4 260.63 524.5C260.73 523.97 260.17 523.28 260.22 522.66C260.37 520.89 260.83 518.49 261.19 516.69C262.32 511 265.34 505.38 267.81 500.31C269.01 497.86 269.63 495.03 271.16 492.66C271.79 491.67 272.9 490.97 273.47 489.97C275.16 487.02 276.46 483.87 278.53 481.03C281.04 477.59 284.35 474.83 287 471.5C287.72 470.6 288.1 469.22 289.03 468.53C289.9 467.88 290.95 468.01 291.81 467.31C293.33 466.08 294.27 463.58 295.69 462.19C296.85 461.05 298.66 460.42 299.97 459.47C304.02 456.51 307.79 453.25 312.03 450.53C313.7 449.46 315.67 448.89 317.34 447.84C318.15 447.34 318.8 446.54 319.69 446.19C320.52 445.86 321.46 446.16 322.28 445.78C322.94 445.48 322.91 444.71 323.53 444.41C323.87 444.24 324.51 444.63 325 444.44C325.53 444.22 326.15 443.47 326.66 443.16C329.85 441.17 333.49 440 337 438.84C337.57 438.5 338.14 438.16 338.71 437.83C340.59 437.56 341.87 436.64 343.69 436.19C344.88 435.89 346.11 436.06 347.31 435.81C351.48 434.95 355.5 432.99 359.69 432.19C364.54 431.25 369.31 431.53 374 429.73C374.17 430.23 374.33 430.72 374.5 431.22C374.94 430.93 375.38 430.65 375.82 430.36C383.01 429.4 397.88 426.13 403.71 421.84C404.32 421.45 404.93 421.06 405.54 420.67C415.51 416.11 421.15 404.87 423.19 394.69C423.82 391.55 425.21 388.45 425.81 385.31C426.18 383.4 425.73 381.44 426.03 379.53C426.2 378.43 426.8 377.57 426.97 376.47C427.42 373.56 426.46 370.41 427.03 367.53C427.29 366.23 428.57 365.52 428.78 364.34C428.97 363.3 428.05 362.55 428.06 361.5C428.08 359.23 429.38 356.54 429.81 354.31C430.37 351.41 430.36 348.55 431.19 345.69C431.53 344.5 432.47 343.5 432.81 342.31C433.42 340.2 433.41 337.73 434.19 335.69C434.7 334.35 435.94 333.38 436.5 332C438.2 327.77 439.84 322.8 442.53 319.03C444.47 316.32 446.66 313.79 448.47 310.97C449.26 309.73 449.67 308.23 450.53 307.03C453.1 303.43 456.82 300.37 459.81 297.31C461.43 295.66 462.6 293.51 464.5 292C466.05 290.77 467.4 290.13 468.64 288.53C469.29 287.91 469.93 287.29 470.58 286.67C475.7 284.28 476.83 282.53 481.03 279.53C483.45 277.8 485.46 278.14 487 277.44C488.22 276.88 488.79 275.14 490 274.56C490.54 274.31 491.08 274.79 491.47 274.59C492.07 274.3 492.12 273.57 492.72 273.22C496.19 271.16 500.89 269.64 504.69 268.19C507.88 266.97 511.07 266.61 514.31 265.81C515.51 265.52 516.5 264.53 517.69 264.19C520.81 263.29 524.34 262.53 527.53 262.03C529.15 261.78 530.85 262.22 532.47 261.97C533.57 261.8 534.43 261.2 535.53 261.03C538.13 260.62 540.86 261.29 543.47 260.97C544.14 260.89 544.85 260.38 545.5 260.38C546.2 260.38 546.8 260.94 547.53 260.97C548.62 261.01 549.51 260.38 550.5 260.38C551.4 260.38 552.54 260.92 553.5 261C556.44 261.25 559.55 260.57 562.47 261.03C569.79 262.18 577.06 263.4 584.31 265.19C589.84 266.55 595.82 269.15 601 271.5C602.77 272.31 604 273.99 605.53 274.59C605.84 274.72 606.19 274.25 606.5 274.38C610.5 276.03 615.41 278.99 618.97 281.53C620.12 282.35 620.89 283.64 622.03 284.47C632.53 292.13 640.73 300.73 648.16 311.34C650.67 314.94 652.26 318.45 654.19 322.31C654.56 323.05 656.75 324.68 656.59 325.47C656.49 326.01 655.38 326.26 655 326.5C655.79 327.09 657.43 327.3 657.81 327.75C659.35 329.57 661.46 337.78 662.19 340.31C663.27 344.07 665.19 347.64 665.97 351.53C666.68 355.11 666.12 359.98 667.19 363.31C667.47 364.19 668.44 364.6 668.63 365.5C668.73 366.03 668.17 366.72 668.22 367.34C668.28 368.05 668.86 368.78 668.97 369.53C669.42 372.48 668.74 375.15 669.84 378ZM497.5 332.69C497.55 332.63 497.6 332.56 497.66 332.5C497.27 332.87 496.89 333.24 496.5 333.61C496.56 333.57 496.63 333.54 496.69 333.5C496.63 334.09 496.56 334.68 496.5 335.27C496.83 334.88 497.17 334.48 497.5 334.09C497.64 333.89 497.79 333.7 497.93 333.5C498.29 333.17 498.64 332.83 498.99 332.5C498.5 332.56 498 332.63 497.5 332.69ZM415.5 473.77C415.6 473.68 415.7 473.59 415.8 473.5C415.7 473.96 415.6 474.43 415.5 474.89C415.83 474.56 416.17 474.23 416.5 473.9C417.06 473.77 417.62 473.63 418.18 473.5C417.62 473.3 417.06 473.09 416.5 472.89C416.17 473.18 415.83 473.48 415.5 473.77ZM702.5 488.41C702.35 488.78 702.19 489.14 702.04 489.5C702.19 489.62 702.35 489.74 702.5 489.85C702.83 489.51 703.17 489.17 703.5 488.83C703.29 489.05 703.08 489.28 702.88 489.5C703.08 489.57 703.29 489.63 703.5 489.7C703.17 489.27 702.83 488.84 702.5 488.41ZM610.5 654.88C610.55 654.75 610.6 654.63 610.65 654.5C610.6 655.08 610.55 655.66 610.5 656.24C610.83 655.97 611.17 655.69 611.5 655.41C611.8 655.11 612.11 654.8 612.41 654.5C612.11 653.95 611.8 653.4 611.5 652.85C611.17 653.53 610.83 654.2 610.5 654.88Z" fill="#ffffff" fill-rule="evenodd" stroke="#ffffff" stroke-width="0.25" stroke-linejoin="round"/>
<path d="M497.5 332.69C498 332.63 498.5 332.56 498.99 332.5C498.64 332.83 498.29 333.17 497.93 333.5C497.79 333.7 497.64 333.89 497.5 334.09C497.17 334.48 496.83 334.88 496.5 335.27C496.56 334.68 496.63 334.09 496.69 333.5C496.63 333.54 496.56 333.57 496.5 333.61C496.89 333.24 497.27 332.87 497.66 332.5C497.6 332.56 497.55 332.63 497.5 332.69ZM642.41 458C642.36 458.33 642.31 458.67 642.27 459C641.76 458.83 641.24 458.67 640.73 458.5C641.29 458.33 641.85 458.17 642.41 458ZM523 459.73C523.35 459.73 523.7 459.73 524.04 459.73C524.25 460.32 524.45 460.91 524.66 461.5C524.11 460.91 523.55 460.32 523 459.73ZM415.5 473.77C415.83 473.48 416.17 473.18 416.5 472.89C417.06 473.09 417.62 473.3 418.18 473.5C417.62 473.63 417.06 473.77 416.5 473.9C416.17 474.23 415.83 474.56 415.5 474.89C415.6 474.43 415.7 473.96 415.8 473.5C415.7 473.59 415.6 473.68 415.5 473.77ZM398 481.27C397.65 481.27 397.3 481.27 396.96 481.27C396.72 480.68 396.49 480.09 396.25 479.5C396.84 480.09 397.42 480.68 398 481.27ZM379 484.27C378.45 484.1 377.9 483.94 377.34 483.78C377.73 483.38 378.11 482.97 378.5 482.57C378.67 483.14 378.83 483.7 379 484.27ZM702.5 488.41C702.83 488.84 703.17 489.27 703.5 489.7C703.29 489.63 703.08 489.57 702.88 489.5C703.08 489.28 703.29 489.05 703.5 488.83C703.17 489.17 702.83 489.51 702.5 489.85C702.35 489.74 702.19 489.62 702.04 489.5C702.19 489.14 702.35 488.78 702.5 488.41ZM560 506.27C559.64 506.27 559.28 506.27 558.92 506.27C558.51 505.68 558.11 505.09 557.7 504.5C559.59 505.38 558.87 504.65 560 506.27ZM694 552.73C694.31 552.73 694.63 552.73 694.94 552.73C695.36 553.32 695.77 553.91 696.19 554.5C695.46 553.91 694.73 553.32 694 552.73ZM562 633.23C562.17 633.78 562.33 634.34 562.5 634.9C561.91 634.59 561.32 634.28 560.73 633.98C561.16 633.73 561.58 633.48 562 633.23ZM610.5 654.88C610.83 654.2 611.17 653.53 611.5 652.85C611.8 653.4 612.11 653.95 612.41 654.5C612.11 654.8 611.8 655.11 611.5 655.41C611.17 655.69 610.83 655.97 610.5 656.24C610.55 655.66 610.6 655.08 610.65 654.5C610.6 654.63 610.55 654.75 610.5 654.88Z" fill="#fbfcfc" fill-rule="evenodd" stroke="#fbfcfc" stroke-width="0.25" stroke-linejoin="round"/>
<path d="M546.17 312C544.68 312.79 545.24 312.75 543.69 312C545.18 311.27 544.66 311.27 546.17 312ZM708.63 542.6C707.86 544.61 707.46 544.99 705.61 545.87C706.62 544.78 707.63 543.69 708.63 542.6Z" fill="#a9a8aa" fill-rule="evenodd" stroke="#a9a8aa" stroke-width="0.25" stroke-linejoin="round"/>
<path d="M453.32 453.14C452.53 455.01 452.08 455.48 450.16 456.27C451.22 455.23 452.27 454.19 453.32 453.14ZM516 670.83C515.33 670.83 514.67 670.83 514 670.83C514.67 670.83 515.33 670.83 516 670.83Z" fill="#898c8f" fill-rule="evenodd" stroke="#898c8f" stroke-width="0.25" stroke-linejoin="round"/>
<path d="M470.58 286.67C469.93 287.29 469.29 287.91 468.64 288.53C469.29 287.91 469.93 287.29 470.58 286.67ZM669.84 378C669.61 378.67 669.39 379.33 669.16 380C669.39 379.33 669.61 378.67 669.84 378Z" fill="#505355" fill-rule="evenodd" stroke="#505355" stroke-width="0.25" stroke-linejoin="round"/>
<path d="M338.71 437.83C338.14 438.16 337.57 438.5 337 438.84C337.57 438.5 338.14 438.16 338.71 437.83ZM688.84 475.95C689.2 476.78 689.56 477.61 689.91 478.43C689.56 477.61 689.2 476.78 688.84 475.95Z" fill="#9d9d9e" fill-rule="evenodd" stroke="#9d9d9e" stroke-width="0.25" stroke-linejoin="round"/>
<path d="M405.83 609C405.83 610 405.83 611 405.83 612C405.06 610.53 405.06 610.47 405.83 609Z" fill="#707275" fill-rule="evenodd" stroke="#707275" stroke-width="0.25" stroke-linejoin="round"/>
<path d="M374 429.73C374.61 429.94 375.21 430.15 375.82 430.36C375.38 430.65 374.94 430.93 374.5 431.22C374.33 430.72 374.17 430.23 374 429.73Z" fill="#f6f6f6" fill-rule="evenodd" stroke="#f6f6f6" stroke-width="0.25" stroke-linejoin="round"/>
<path d="M405.54 420.67C404.93 421.06 404.32 421.45 403.71 421.84C404.32 421.45 404.93 421.06 405.54 420.67Z" fill="#7c8080" fill-rule="evenodd" stroke="#7c8080" stroke-width="0.25" stroke-linejoin="round"/>
</svg>